<svg id="visual" viewBox="0 0 900 600" width="900" height="600" xmlns="http://www.w3.org/2000/svg" xmlns:xlink="http://www.w3.org/1999/xlink" version="1.1"><g stroke-width="1" stroke-linejoin="bevel"><path d="M475 264L579 203L529 171Z" fill="#15384f" stroke="#15384f"></path><path d="M475 264L565 339L579 203Z" fill="#205a7a" stroke="#205a7a"></path><path d="M721 235L612 135L579 203Z" fill="#205a7a" stroke="#205a7a"></path><path d="M579 203L612 135L529 171Z" fill="#112e42" stroke="#112e42"></path><path d="M612 135L509 91L529 171Z" fill="#15384f" stroke="#15384f"></path><path d="M529 171L360 192L475 264Z" fill="#246688" stroke="#246688"></path><path d="M430 66L360 192L529 171Z" fill="#277297" stroke="#277297"></path><path d="M475 264L525 415L565 339Z" fill="#277297" stroke="#277297"></path><path d="M360 192L363 292L475 264Z" fill="#081a28" stroke="#081a28"></path><path d="M418 433L525 415L475 264Z" fill="#297ea6" stroke="#297ea6"></path><path d="M525 415L634 383L565 339Z" fill="#1d4e6b" stroke="#1d4e6b"></path><path d="M709 307L721 235L579 203Z" fill="#246688" stroke="#246688"></path><path d="M509 91L430 66L529 171Z" fill="#277297" stroke="#277297"></path><path d="M709 307L579 203L565 339Z" fill="#081a28" stroke="#081a28"></path><path d="M634 383L709 307L565 339Z" fill="#277297" stroke="#277297"></path><path d="M721 235L686 110L612 135Z" fill="#205a7a" stroke="#205a7a"></path><path d="M573 0L529 0L509 91Z" fill="#19435d" stroke="#19435d"></path><path d="M509 91L529 0L430 66Z" fill="#19435d" stroke="#19435d"></path><path d="M430 66L334 166L360 192Z" fill="#277297" stroke="#277297"></path><path d="M360 192L217 201L363 292Z" fill="#00101c" stroke="#00101c"></path><path d="M217 201L332 330L363 292Z" fill="#19435d" stroke="#19435d"></path><path d="M363 292L418 433L475 264Z" fill="#15384f" stroke="#15384f"></path><path d="M578 480L667 404L634 383Z" fill="#19435d" stroke="#19435d"></path><path d="M634 383L667 404L709 307Z" fill="#00101c" stroke="#00101c"></path><path d="M332 330L418 433L363 292Z" fill="#297ea6" stroke="#297ea6"></path><path d="M525 415L578 480L634 383Z" fill="#15384f" stroke="#15384f"></path><path d="M573 0L509 91L612 135Z" fill="#205a7a" stroke="#205a7a"></path><path d="M686 110L573 0L612 135Z" fill="#00101c" stroke="#00101c"></path><path d="M430 66L326 99L334 166Z" fill="#00101c" stroke="#00101c"></path><path d="M334 166L217 201L360 192Z" fill="#15384f" stroke="#15384f"></path><path d="M376 0L326 99L430 66Z" fill="#1d4e6b" stroke="#1d4e6b"></path><path d="M526 488L578 480L525 415Z" fill="#1d4e6b" stroke="#1d4e6b"></path><path d="M418 433L526 488L525 415Z" fill="#00101c" stroke="#00101c"></path><path d="M332 330L323 409L418 433Z" fill="#1d4e6b" stroke="#1d4e6b"></path><path d="M418 433L360 511L526 488Z" fill="#19435d" stroke="#19435d"></path><path d="M236 417L323 409L332 330Z" fill="#246688" stroke="#246688"></path><path d="M709 307L796 227L721 235Z" fill="#277297" stroke="#277297"></path><path d="M721 235L796 227L686 110Z" fill="#205a7a" stroke="#205a7a"></path><path d="M839 334L796 227L709 307Z" fill="#112e42" stroke="#112e42"></path><path d="M529 0L376 0L430 66Z" fill="#277297" stroke="#277297"></path><path d="M789 0L687 0L686 110Z" fill="#297ea6" stroke="#297ea6"></path><path d="M686 110L687 0L573 0Z" fill="#081a28" stroke="#081a28"></path><path d="M376 0L333 0L326 99Z" fill="#297ea6" stroke="#297ea6"></path><path d="M226 61L217 201L326 99Z" fill="#297ea6" stroke="#297ea6"></path><path d="M326 99L217 201L334 166Z" fill="#081a28" stroke="#081a28"></path><path d="M236 417L313 464L323 409Z" fill="#205a7a" stroke="#205a7a"></path><path d="M323 409L313 464L418 433Z" fill="#1d4e6b" stroke="#1d4e6b"></path><path d="M735 517L814 371L667 404Z" fill="#246688" stroke="#246688"></path><path d="M667 404L814 371L709 307Z" fill="#00101c" stroke="#00101c"></path><path d="M796 227L823 105L686 110Z" fill="#00101c" stroke="#00101c"></path><path d="M900 181L823 105L796 227Z" fill="#297ea6" stroke="#297ea6"></path><path d="M313 464L360 511L418 433Z" fill="#0c2435" stroke="#0c2435"></path><path d="M814 371L839 334L709 307Z" fill="#205a7a" stroke="#205a7a"></path><path d="M217 201L194 322L332 330Z" fill="#205a7a" stroke="#205a7a"></path><path d="M194 322L236 417L332 330Z" fill="#15384f" stroke="#15384f"></path><path d="M302 600L365 600L360 511Z" fill="#081a28" stroke="#081a28"></path><path d="M333 0L226 61L326 99Z" fill="#246688" stroke="#246688"></path><path d="M217 201L109 297L194 322Z" fill="#081a28" stroke="#081a28"></path><path d="M823 105L789 0L686 110Z" fill="#19435d" stroke="#19435d"></path><path d="M578 480L735 517L667 404Z" fill="#081a28" stroke="#081a28"></path><path d="M900 401L900 297L839 334Z" fill="#00101c" stroke="#00101c"></path><path d="M596 600L735 517L578 480Z" fill="#112e42" stroke="#112e42"></path><path d="M596 600L578 480L526 488Z" fill="#112e42" stroke="#112e42"></path><path d="M360 511L517 600L526 488Z" fill="#00101c" stroke="#00101c"></path><path d="M517 600L596 600L526 488Z" fill="#19435d" stroke="#19435d"></path><path d="M900 297L900 181L796 227Z" fill="#205a7a" stroke="#205a7a"></path><path d="M823 105L900 0L789 0Z" fill="#1d4e6b" stroke="#1d4e6b"></path><path d="M839 334L900 297L796 227Z" fill="#277297" stroke="#277297"></path><path d="M900 401L839 334L814 371Z" fill="#19435d" stroke="#19435d"></path><path d="M333 0L209 0L226 61Z" fill="#1d4e6b" stroke="#1d4e6b"></path><path d="M72 237L109 297L217 201Z" fill="#246688" stroke="#246688"></path><path d="M900 181L900 98L823 105Z" fill="#112e42" stroke="#112e42"></path><path d="M771 600L819 501L735 517Z" fill="#1d4e6b" stroke="#1d4e6b"></path><path d="M735 517L819 501L814 371Z" fill="#19435d" stroke="#19435d"></path><path d="M302 600L360 511L313 464Z" fill="#00101c" stroke="#00101c"></path><path d="M360 511L365 600L517 600Z" fill="#1d4e6b" stroke="#1d4e6b"></path><path d="M900 466L900 401L814 371Z" fill="#081a28" stroke="#081a28"></path><path d="M596 600L728 600L735 517Z" fill="#15384f" stroke="#15384f"></path><path d="M76 398L139 482L236 417Z" fill="#0c2435" stroke="#0c2435"></path><path d="M168 529L302 600L313 464Z" fill="#19435d" stroke="#19435d"></path><path d="M72 237L217 201L70 102Z" fill="#246688" stroke="#246688"></path><path d="M168 529L313 464L236 417Z" fill="#1d4e6b" stroke="#1d4e6b"></path><path d="M900 98L900 0L823 105Z" fill="#277297" stroke="#277297"></path><path d="M900 600L900 466L819 501Z" fill="#297ea6" stroke="#297ea6"></path><path d="M819 501L900 466L814 371Z" fill="#00101c" stroke="#00101c"></path><path d="M728 600L771 600L735 517Z" fill="#246688" stroke="#246688"></path><path d="M70 102L217 201L226 61Z" fill="#277297" stroke="#277297"></path><path d="M76 398L194 322L109 297Z" fill="#00101c" stroke="#00101c"></path><path d="M76 398L236 417L194 322Z" fill="#19435d" stroke="#19435d"></path><path d="M139 482L168 529L236 417Z" fill="#19435d" stroke="#19435d"></path><path d="M104 0L70 102L226 61Z" fill="#1d4e6b" stroke="#1d4e6b"></path><path d="M0 336L76 398L109 297Z" fill="#15384f" stroke="#15384f"></path><path d="M131 600L193 600L168 529Z" fill="#00101c" stroke="#00101c"></path><path d="M209 0L104 0L226 61Z" fill="#205a7a" stroke="#205a7a"></path><path d="M131 600L168 529L139 482Z" fill="#00101c" stroke="#00101c"></path><path d="M168 529L193 600L302 600Z" fill="#1d4e6b" stroke="#1d4e6b"></path><path d="M771 600L900 600L819 501Z" fill="#081a28" stroke="#081a28"></path><path d="M0 98L0 161L70 102Z" fill="#297ea6" stroke="#297ea6"></path><path d="M70 102L0 161L72 237Z" fill="#112e42" stroke="#112e42"></path><path d="M72 237L0 336L109 297Z" fill="#19435d" stroke="#19435d"></path><path d="M0 161L0 336L72 237Z" fill="#0c2435" stroke="#0c2435"></path><path d="M0 498L131 600L139 482Z" fill="#081a28" stroke="#081a28"></path><path d="M0 498L139 482L76 398Z" fill="#277297" stroke="#277297"></path><path d="M0 0L0 98L70 102Z" fill="#277297" stroke="#277297"></path><path d="M0 336L0 418L76 398Z" fill="#081a28" stroke="#081a28"></path><path d="M104 0L0 0L70 102Z" fill="#1d4e6b" stroke="#1d4e6b"></path><path d="M0 418L0 498L76 398Z" fill="#081a28" stroke="#081a28"></path><path d="M0 498L0 600L131 600Z" fill="#297ea6" stroke="#297ea6"></path></g></svg>